<svg width="25" height="31" viewBox="0 0 25 31" fill="none" xmlns="http://www.w3.org/2000/svg">
<path d="M24.6925 0.591016L20.6514 0.00622214C20.5318 -0.0171696 20.4123 0.029611 20.3644 0.0763945L18.6428 2.27522C18.5232 2.41557 18.4993 2.6027 18.5471 2.76645C18.5949 2.93019 18.4515 3.07054 18.2841 3.04715L16.8733 2.74305C16.6581 2.69627 16.4189 2.76645 16.2755 2.95358L10.68 9.97111C10.5844 10.1115 10.3931 10.1582 10.2257 10.0881L8.0975 9.1524C7.9062 9.05883 7.691 9.08222 7.52361 9.19918L6.44756 9.92432C6.28018 10.0413 6.04106 10.0647 5.84976 9.97111L5.32369 9.7138C4.98892 9.55006 4.58242 9.73719 4.48677 10.0881L4.10417 11.7489C4.00852 12.1465 4.17591 12.5442 4.53459 12.7547L5.3476 13.246L7.95403 14.8132L9.22137 15.5851C9.58005 15.7957 10.0344 15.7489 10.3452 15.4916L12.4734 13.667C12.6408 13.5267 12.9038 13.4799 13.0951 13.5968L13.7408 13.9243C13.956 14.0413 14.219 13.9945 14.3864 13.8307L15.4624 12.8483C15.6298 12.6846 15.8929 12.6612 16.0842 12.7547L17.6863 13.4799C17.9254 13.5968 18.2123 13.5267 18.3797 13.3161L19.121 12.3805L24.7404 5.33954C25.0034 5.01205 24.836 4.52083 24.4056 4.42726L23.1622 4.14656C22.8991 4.09977 22.7796 3.77229 22.9709 3.58516L24.9077 1.22259C25.099 0.941888 24.9795 0.637799 24.6925 0.591016Z" fill="#9747FF"/>
<path d="M6.15839 14.7654C6.03883 14.6952 5.91927 14.8122 5.9671 14.9292L6.5649 16.473C6.61272 16.59 6.61272 16.7069 6.58881 16.8239L6.06274 18.8356C6.03883 18.9759 6.08666 19.1163 6.1823 19.1865L7.68877 20.3327C7.83224 20.4262 8.02354 20.4262 8.1431 20.3093L9.7213 18.9525C9.81695 18.8824 9.93651 18.8356 10.0322 18.8122L11.8256 18.6251C11.9451 18.6017 11.993 18.4379 11.8734 18.3677L6.15839 14.7654Z" fill="#9747FF"/>
<path d="M5.63239 19.9608C5.53674 19.8906 5.39327 19.8672 5.27371 19.914L4.00637 20.5222C3.93463 20.5456 3.8868 20.6158 3.83898 20.6859L1.13691 27.2122C1.13691 27.2356 1.13691 27.2356 1.13691 27.259C1.16082 27.2824 1.18473 27.3058 1.23256 27.3058L1.85427 27.0719C1.87818 27.0719 1.90209 27.0719 1.92601 27.0719C1.94992 27.0953 1.97383 27.1421 1.94992 27.1655L0.0130339 30.2766C-0.0347904 30.3467 0.0608604 30.4169 0.108685 30.3467L7.11495 23.4696C7.18668 23.3994 7.21059 23.3292 7.23451 23.2356L7.37798 21.4579C7.37798 21.3409 7.33015 21.2473 7.25842 21.1772L5.63239 19.9608Z" fill="#9747FF"/>
</svg>
