<svg width="237" height="34" viewBox="0 0 237 34" fill="none" xmlns="http://www.w3.org/2000/svg">
<path d="M0.00165599 3.11163C-0.0106824 2.77356 0.0460742 2.43795 0.166991 2.12456C0.287907 1.81116 0.470515 1.52985 0.702477 1.29542C1.24043 0.826559 1.91658 0.572388 2.61493 0.572388C3.31328 0.572388 3.98943 0.829026 4.52738 1.29542C4.75687 1.53478 4.93948 1.81857 5.06287 2.13196C5.18625 2.44536 5.25041 2.78096 5.25041 3.1215C5.25041 3.46204 5.18625 3.79764 5.06287 4.11104C4.93948 4.42443 4.75687 4.70822 4.52738 4.94758C3.99189 5.41644 3.31822 5.67061 2.61986 5.67061C1.92151 5.67061 1.24783 5.41397 0.712348 4.94758C0.480386 4.71069 0.29531 4.42443 0.174394 4.10857C0.0534772 3.79024 -0.00574704 3.45217 0.00165599 3.11163ZM4.96169 26.2585H0.273101V7.86191H4.96169V26.2585Z" fill="white"/>
<path d="M8.01177 16.9727C8.01177 14.1201 8.69779 11.8276 10.0673 10.0903C10.7089 9.2464 11.548 8.57025 12.5104 8.1162C13.4727 7.66215 14.5314 7.44499 15.5949 7.48447C16.5031 7.43759 17.4112 7.60292 18.2452 7.96567C19.0793 8.32842 19.8147 8.88118 20.3971 9.5746L20.5969 7.82255H25.135V25.7724C25.172 27.2654 24.7821 28.7361 24.0147 30.0193C23.262 31.2235 22.1664 32.181 20.8684 32.7708C19.3754 33.4272 17.7566 33.748 16.1255 33.711C14.7485 33.711 13.3864 33.4321 12.118 32.8991C10.9681 32.4623 9.95137 31.7344 9.17158 30.7892L11.3802 27.7688C11.9378 28.4252 12.6337 28.9508 13.4185 29.3111C14.2032 29.6714 15.0595 29.854 15.9232 29.849C17.0583 29.9132 18.1737 29.5332 19.0275 28.7904C19.41 28.3931 19.7061 27.9243 19.8961 27.4085C20.0861 26.8928 20.1651 26.3449 20.1305 25.7971V24.8026C19.563 25.4418 18.8622 25.9452 18.0725 26.2808C17.2853 26.6164 16.4315 26.7719 15.5752 26.7373C14.5215 26.7644 13.4752 26.5424 12.5252 26.0858C11.5751 25.6293 10.7509 24.9556 10.1167 24.1191C8.72 22.367 8.03151 20.0302 8.03151 17.1775V16.9678H8.00684L8.01177 16.9727ZM13.0088 17.328C12.9323 18.7198 13.2901 20.1017 14.0354 21.2837C14.3389 21.7403 14.7559 22.1153 15.2445 22.367C15.7356 22.6187 16.281 22.7446 16.8337 22.7273C17.4852 22.7717 18.1342 22.6385 18.7116 22.3374C19.2891 22.0388 19.7727 21.5873 20.1083 21.032V13.207C19.7826 12.6543 19.3063 12.2002 18.7338 11.9016C18.1613 11.603 17.5173 11.4673 16.8732 11.5117C16.313 11.4945 15.7603 11.6203 15.2643 11.8769C14.7683 12.1336 14.3488 12.5136 14.0452 12.98C13.3568 13.9547 13.0088 15.3983 13.0088 17.328Z" fill="white"/>
<path d="M33.0981 7.83265L33.256 10.0289C33.8877 9.20468 34.6996 8.54334 35.6274 8.10163C36.5553 7.65992 37.5744 7.44523 38.5985 7.48224C40.5677 7.48224 42.036 8.07942 42.9885 9.27131C43.941 10.4657 44.4444 12.2078 44.4741 14.5645V26.814H39.5116V14.6829C39.5856 13.8415 39.3388 13.0024 38.828 12.3386C38.5146 12.0697 38.1519 11.8673 37.7595 11.7415C37.3671 11.6156 36.9575 11.5712 36.5479 11.6107C35.9112 11.586 35.2795 11.7415 34.7267 12.0647C34.174 12.3855 33.7174 12.8593 33.4139 13.4318V26.8017H28.4514V7.84499L33.0981 7.83265Z" fill="white"/>
<path d="M47.5118 3.11153C47.4994 2.77346 47.5636 2.43786 47.6968 2.12446C47.8301 1.81107 48.03 1.52975 48.2866 1.29285C48.8813 0.826463 49.6315 0.569824 50.4039 0.569824C51.1763 0.569824 51.924 0.826463 52.5211 1.29285C53.0295 1.77899 53.3133 2.43539 53.3133 3.11894C53.3133 3.80248 53.0295 4.45889 52.5211 4.94502C51.9289 5.41141 51.1812 5.66805 50.4113 5.66805C49.6414 5.66805 48.8936 5.41141 48.3014 4.94502C48.0448 4.70812 47.8424 4.42187 47.7067 4.10601C47.571 3.79015 47.5068 3.45207 47.5167 3.11153H47.5118ZM52.9949 26.2608H47.8153V7.86182H52.9949V26.2584V26.2608Z" fill="white"/>
<path d="M62.4537 3.33377V7.94586H65.5605V11.6227H62.4537V21.0048C62.4043 21.5354 62.545 22.0684 62.8485 22.5002C63.0509 22.6779 63.2853 22.8087 63.5395 22.8877C63.7936 22.9642 64.0601 22.9864 64.3217 22.9493C64.798 22.9518 65.2718 22.9148 65.7431 22.8358V26.6385C64.7906 26.9396 63.7986 27.0901 62.8041 27.0876C59.4061 27.0876 57.6763 25.3134 57.6146 21.7673V11.6449H54.9717V7.96807H57.6146V3.35598H62.4562V3.3313L62.4537 3.33377Z" fill="white"/>
<path d="M76.4874 27.0804C75.2486 27.1273 74.0123 26.9274 72.85 26.4906C71.6902 26.0538 70.6291 25.3875 69.7284 24.5313C67.9887 22.831 67.1225 20.5731 67.1225 17.7328V17.2393C67.088 15.4823 67.4655 13.7426 68.2207 12.1583C68.8993 10.7246 69.9801 9.52037 71.3324 8.6937C72.7192 7.86949 74.3084 7.44999 75.9223 7.47466C78.4985 7.47466 80.5418 8.289 82.0199 9.9226C83.4981 11.5562 84.2458 13.8635 84.2458 16.8518V18.9074H72.2356C72.3466 20.045 72.8698 21.1012 73.7088 21.8785C74.5675 22.6311 75.6804 23.0284 76.8205 22.989C77.6916 23.0284 78.5627 22.8557 79.3524 22.488C80.1445 22.1203 80.8354 21.5651 81.3684 20.8742L83.8435 23.6552C83.0637 24.7509 82.0026 25.617 80.7737 26.1624C79.4313 26.7867 77.968 27.1001 76.4874 27.0779V27.0804ZM75.8927 11.5661C75.4386 11.5488 74.987 11.6302 74.5675 11.8054C74.148 11.9806 73.7729 12.2422 73.4645 12.5778C72.7883 13.4094 72.3762 14.4236 72.2775 15.4897H79.2833V15.085C79.3227 14.1325 78.9995 13.1972 78.3752 12.4766C78.0519 12.1633 77.6669 11.9214 77.245 11.766C76.823 11.6105 76.3739 11.5414 75.9248 11.5685H75.8951L75.8927 11.5661Z" fill="white"/>
<path d="M97.7711 26.2587H92.8135V0.00012207H97.7711V26.2587Z" fill="white"/>
<path d="M112.209 26.2587C111.982 25.8146 111.817 25.2618 111.713 24.6005C110.517 25.933 108.962 26.6017 107.047 26.6017C105.236 26.6017 103.733 26.0786 102.543 25.0298C101.352 23.9811 100.757 22.6584 100.757 21.0643C100.757 19.1049 101.482 17.5997 102.936 16.5509C104.389 15.5021 106.489 14.9716 109.236 14.9617H111.509V13.9006C111.509 13.0468 111.289 12.3608 110.85 11.85C110.41 11.3367 109.719 11.08 108.772 11.08C107.94 11.08 107.286 11.2799 106.815 11.6797C106.341 12.0795 106.107 12.6248 106.107 13.3207H101.166C101.166 12.2497 101.497 11.2577 102.158 10.3471C102.82 9.43657 103.755 8.72095 104.962 8.20273C106.168 7.68452 107.526 7.42542 109.031 7.42542C111.311 7.42542 113.12 7.99792 114.46 9.14292C115.8 10.2879 116.469 11.8993 116.469 13.9722V21.9897C116.481 23.7442 116.725 25.0718 117.204 25.9725V26.2637H112.212L112.209 26.2587ZM108.123 22.8237C108.851 22.8237 109.525 22.6609 110.139 22.3376C110.753 22.0119 111.21 21.5776 111.506 21.0297V17.8489H109.66C107.188 17.8489 105.87 18.7027 105.712 20.4128L105.695 20.704C105.695 21.3184 105.912 21.8268 106.344 22.2266C106.778 22.6263 107.37 22.8262 108.123 22.8262V22.8237Z" fill="white"/>
<path d="M136.58 17.1827C136.58 20.1464 135.948 22.4561 134.682 24.1144C133.417 25.7727 131.65 26.6018 129.382 26.6018C127.376 26.6018 125.774 25.8319 124.577 24.2945L124.355 26.2613H119.911V0.000244141H124.851V9.41937C125.991 8.08683 127.489 7.41809 129.347 7.41809C131.603 7.41809 133.372 8.24723 134.655 9.90551C135.938 11.5638 136.578 13.8982 136.578 16.9063V17.1802L136.58 17.1827ZM131.64 16.8249C131.64 14.9568 131.344 13.5922 130.751 12.731C130.159 11.8698 129.276 11.4404 128.101 11.4404C126.529 11.4404 125.446 12.0845 124.854 13.3726V20.672C125.458 21.97 126.551 22.6215 128.136 22.6215C129.72 22.6215 130.779 21.8343 131.282 20.2624C131.521 19.5097 131.64 18.3647 131.64 16.8249Z" fill="white"/>
<path d="M164.51 17.501H162.227V22.0317H160.179V10.251H164.322C165.682 10.251 166.73 10.557 167.471 11.1665C168.211 11.776 168.579 12.6594 168.579 13.8143C168.579 14.6015 168.389 15.2628 168.009 15.7934C167.629 16.3264 167.098 16.7336 166.419 17.0198L169.065 21.9256V22.0317H166.871L164.507 17.501H164.51ZM162.227 15.8501H164.332C165.023 15.8501 165.561 15.6749 165.951 15.327C166.341 14.979 166.533 14.5028 166.533 13.8982C166.533 13.2936 166.353 12.7779 165.995 12.4324C165.637 12.0869 165.102 11.9093 164.389 11.8994H162.227V15.8477V15.8501Z" fill="#C4C4CC"/>
<path d="M179.066 16.7731H174.227V20.3981H179.883V22.0317H172.179V10.251H179.827V11.9019H174.227V15.1543H179.066V16.7731Z" fill="#C4C4CC"/>
<path d="M189.803 19.2901H185.238L184.283 22.0341H182.156L186.608 10.251H188.444L192.903 22.0341H190.766L189.803 19.2901ZM185.813 17.6392H189.228L187.521 12.7507L185.813 17.6392Z" fill="#C4C4CC"/>
<path d="M204.716 18.1967C204.597 19.4528 204.133 20.4349 203.324 21.1382C202.514 21.8415 201.439 22.1944 200.096 22.1944C199.158 22.1944 198.332 21.9723 197.616 21.5256C196.901 21.0814 196.35 20.4472 195.96 19.628C195.573 18.8087 195.371 17.8562 195.353 16.7704V15.6698C195.353 14.5594 195.551 13.5797 195.943 12.7333C196.335 11.8869 196.903 11.2329 197.638 10.7739C198.374 10.3149 199.225 10.0854 200.192 10.0854C201.493 10.0854 202.539 10.4383 203.331 11.1416C204.123 11.8449 204.585 12.8418 204.716 14.1324H202.677C202.581 13.286 202.334 12.674 201.937 12.299C201.54 11.9239 200.96 11.7363 200.192 11.7363C199.302 11.7363 198.618 12.0621 198.142 12.7135C197.663 13.365 197.421 14.3175 197.409 15.576V16.6199C197.409 17.8932 197.636 18.8655 198.092 19.5367C198.549 20.2054 199.215 20.541 200.096 20.541C200.901 20.541 201.505 20.3609 201.91 19.9981C202.315 19.6354 202.571 19.0357 202.68 18.1942H204.718L204.716 18.1967Z" fill="#C4C4CC"/>
<path d="M216.481 11.9019H212.807V22.0341H210.776V11.9019H207.134V10.251H216.481V11.9019Z" fill="#C4C4CC"/>
<path d="M222.759 10.251H224.798V18.5128C224.798 19.6405 224.445 20.5363 223.741 21.2001C223.038 21.8639 222.108 22.1945 220.953 22.1945C219.724 22.1945 218.774 21.8836 218.105 21.2642C217.436 20.6448 217.101 19.7812 217.101 18.6756H219.139C219.139 19.3024 219.295 19.7713 219.606 20.0871C219.916 20.403 220.366 20.5609 220.953 20.5609C221.503 20.5609 221.942 20.3783 222.268 20.0156C222.594 19.6504 222.757 19.1494 222.757 18.5054V10.251H222.759Z" fill="#C4C4CC"/>
<path d="M234.952 18.9988C234.952 18.4806 234.769 18.0808 234.407 17.802C234.044 17.5231 233.385 17.2393 232.435 16.9531C231.485 16.6668 230.73 16.3485 230.17 15.9981C229.096 15.3244 228.558 14.4434 228.558 13.3601C228.558 12.4101 228.946 11.6278 229.721 11.0134C230.495 10.3989 231.5 10.0905 232.736 10.0905C233.555 10.0905 234.286 10.241 234.93 10.5445C235.571 10.8456 236.077 11.2774 236.443 11.8351C236.81 12.3928 236.993 13.0122 236.993 13.6933H234.955C234.955 13.0788 234.762 12.5976 234.377 12.2497C233.992 11.9017 233.439 11.7265 232.721 11.7265C232.053 11.7265 231.532 11.8697 231.164 12.1559C230.794 12.4422 230.609 12.8419 230.609 13.3527C230.609 13.7846 230.809 14.1449 231.209 14.4336C231.608 14.7223 232.265 15.0036 233.183 15.275C234.101 15.5465 234.836 15.8574 235.391 16.2054C235.947 16.5533 236.354 16.9531 236.613 17.4022C236.872 17.8538 237 18.3794 237 18.984C237 19.9661 236.625 20.7459 235.873 21.3258C235.12 21.9057 234.098 22.1969 232.81 22.1969C231.956 22.1969 231.174 22.039 230.458 21.7231C229.743 21.4072 229.188 20.9729 228.79 20.4152C228.393 19.86 228.196 19.211 228.196 18.4732H230.244C230.244 19.1419 230.466 19.6601 230.908 20.0278C231.349 20.3955 231.983 20.5781 232.81 20.5781C233.523 20.5781 234.056 20.435 234.417 20.1462C234.774 19.8575 234.955 19.475 234.955 19.0012L234.952 18.9988Z" fill="#C4C4CC"/>
<path d="M150.271 33.1458H145.313V0.569946H150.271V33.1458Z" fill="#00B37E"/>
</svg>
